{
  "asset": {
    "generator": "Khronos glTF Blender I/O v3.3.32",
    "version": "2.0"
  },
  "buffers": [
    {
      "uri": "data:application/octet-stream;base64,",
      "byteLength": 71636
    }
  ],
  "bufferViews": [
    {
      "buffer": 0,
      "byteOffset": 0,
      "byteLength": 15648,
      "byteStride": 12,
      "target": 34962
    },
    {
      "buffer": 0,
      "byteOffset": 15648,
      "byteLength": 15648,
      "byteStride": 12,
      "target": 34962
    },
    {
      "buffer": 0,
      "byteOffset": 31296,
      "byteLength": 10432,
      "byteStride": 8,
      "target": 34962
    },
    {
      "buffer": 0,
      "byteOffset": 41728,
      "byteLength": 5216,
      "byteStride": 4,
      "target": 34962
    },
    {
      "buffer": 0,
      "byteOffset": 46944,
      "byteLength": 20864,
      "byteStride": 16,
      "target": 34962
    },
    {
      "buffer": 0,
      "byteOffset": 67808,
      "byteLength": 3828,
      "target": 34963
    }
  ],
  "accessors": [
    {
      "bufferView": 0,
      "byteOffset": 0,
      "componentType": 5126,
      "normalized": false,
      "count": 1304,
      "min": [
        -1.028022289276123,
        -1.382216215133667,
        -5.162032604217529
      ],
      "max": [
        1.028022289276123,
        1.9064140319824219,
        3.2002265453338623
      ],
      "type": "VEC3"
    },
    {
      "bufferView": 1,
      "byteOffset": 0,
      "componentType": 5126,
      "normalized": false,
      "count": 1304,
      "min": [
        -0.9998824596405029,
        -1,
        -0.9741092324256897
      ],
      "max": [
        0.9998824596405029,
        0.996767520904541,
        0.9926528930664062
      ],
      "type": "VEC3"
    },
    {
      "bufferView": 2,
      "byteOffset": 0,
      "componentType": 5126,
      "normalized": false,
      "count": 1304,
      "min": [
        0.005818963050842285,
        0.015081524848937988
      ],
      "max": [
        0.9941811561584473,
        0.9941811561584473
      ],
      "type": "VEC2"
    },
    {
      "bufferView": 3,
      "byteOffset": 0,
      "componentType": 5121,
      "normalized": false,
      "count": 1304,
      "min": [
        0,
        0,
        0,
        0
      ],
      "max": [
        26,
        26,
        24,
        23
      ],
      "type": "VEC4"
    },
    {
      "bufferView": 4,
      "byteOffset": 0,
      "componentType": 5126,
      "normalized": false,
      "count": 1304,
      "min": [
        0.4790481925010681,
        0,
        0,
        0
      ],
      "max": [
        1,
        0.49299561977386475,
        0.23227490484714508,
        0.09303439408540726
      ],
      "type": "VEC4"
    },
    {
      "bufferView": 5,
      "byteOffset": 0,
      "componentType": 5123,
      "normalized": false,
      "count": 1914,
      "min": [
        0
      ],
      "max": [
        1303
      ],
      "type": "SCALAR"
    }
  ],
  "scene": 0,
  "scenes": [
    {
      "nodes": [
        28
      ]
    }
  ],
  "nodes": [
    {
      "name": "v0.2",
      "mesh": 0
    },
    {
      "name": "nose",
      "matrix": [
        0.9996325969696045,
        -0.027104422450065613,
        -1.0815225692795138e-7,
        0,
        0.02710442617535591,
        0.999632716178894,
        1.1449909465000019e-8,
        0,
        1.078021867328971e-7,
        -1.4377107504515152e-8,
        1.0000001192092896,
        0,
        2.3841852225814364e-7,
        0.7574372291564941,
        8.526512829121202e-14,
        1
      ]
    },
    {
      "name": "ear.L",
      "matrix": [
        0.03273060545325279,
        0.8795107007026672,
        0.47475242614746094,
        0,
        -0.8409419059753418,
        0.2809392809867859,
        -0.4624822437763214,
        0,
        -0.5401346683502197,
        -0.38410189747810364,
        0.748812735080719,
        0,
        -0.4593302309513092,
        0.15989328920841217,
        -0.44243133068084717,
        1
      ]
    },
    {
      "name": "ear.R",
      "matrix": [
        0.2930114269256592,
        0.9549384713172913,
        -0.04729638621211052,
        0,
        -0.8409428596496582,
        0.28093910217285156,
        0.46248069405555725,
        0,
        0.4549280107021332,
        -0.09573860466480255,
        0.8853670954704285,
        0,
        -0.4593305289745331,
        0.1598927229642868,
        0.4424312710762024,
        1
      ]
    },
    {
      "name": "head",
      "children": [
        1,
        2,
        3
      ],
      "matrix": [
        0.8732292056083679,
        -0.4873097240924835,
        -4.485499971451645e-7,
        0,
        0.4873097240924835,
        0.8732292056083679,
        -2.870215887185168e-8,
        0,
        4.056738021063211e-7,
        -1.935192130986252e-7,
        1,
        0,
        -1.49011640360186e-7,
        0.5889161825180054,
        7.105427357601002e-15,
        1
      ]
    },
    {
      "name": "neck",
      "children": [
        4
      ],
      "matrix": [
        0.9581096172332764,
        0.28640174865722656,
        -2.1718224729738722e-7,
        0,
        -0.2864017188549042,
        0.9581095576286316,
        9.753316732030726e-8,
        0,
        2.3601806731221586e-7,
        -3.124609548876833e-8,
        1,
        0,
        1.1175897540738333e-8,
        0.817484438419342,
        0,
        1
      ]
    },
    {
      "name": "upper_body",
      "children": [
        5
      ],
      "matrix": [
        0.9989174008369446,
        0.04651748389005661,
        0.000001679121851339005,
        0,
        -0.04651748389005661,
        0.9989174604415894,
        -7.725117256995873e-8,
        0,
        -0.0000016808977534310543,
        -9.409836243534642e-10,
        1,
        0,
        -5.0291525610646204e-8,
        0.827332079410553,
        -3.232969447708456e-13,
        1
      ]
    },
    {
      "name": "hand.R",
      "matrix": [
        0.02654050663113594,
        -0.14040489494800568,
        -0.9897384643554688,
        0,
        0.9013898372650146,
        0.43142247200012207,
        -0.037030432373285294,
        0,
        0.43219470977783203,
        -0.891157329082489,
        0.1380096822977066,
        0,
        5.2619725465774536e-8,
        0.7275981903076172,
        -3.3527612686157227e-8,
        1
      ]
    },
    {
      "name": "lower_front_leg.R",
      "children": [
        7
      ],
      "matrix": [
        0.9073424339294434,
        -0.4019942879676819,
        -0.12300466001033783,
        0,
        0.4155600368976593,
        0.9018967151641846,
        0.11786503344774246,
        0,
        0.06355643272399902,
        -0.15805977582931519,
        0.9853820204734802,
        0,
        1.862645149230957e-8,
        0.9492268562316895,
        -4.470348358154297e-8,
        1
      ]
    },
    {
      "name": "upper_front_leg.R",
      "children": [
        8
      ],
      "matrix": [
        0.1061597391963005,
        0.9911242723464966,
        -0.08002031594514847,
        0,
        0.982454776763916,
        -0.09213975816965103,
        0.16215170919895172,
        0,
        0.1533394157886505,
        -0.09583032131195068,
        -0.9835161566734314,
        0,
        0.6641183495521545,
        1.170907974243164,
        0.30858469009399414,
        1
      ]
    },
    {
      "name": "hand.L",
      "matrix": [
        0.2930809557437897,
        -0.35861527919769287,
        -0.8862837553024292,
        0,
        0.8939902782440186,
        0.43142232298851013,
        0.12106382101774216,
        0,
        0.33894723653793335,
        -0.8278104662895203,
        0.4470401704311371,
        0,
        -8.568167686462402e-8,
        0.7275986075401306,
        -2.60770320892334e-8,
        1
      ]
    },
    {
      "name": "lower_front_leg.L",
      "children": [
        10
      ],
      "matrix": [
        0.9074045419692993,
        -0.4150005877017975,
        0.0662691593170166,
        0,
        0.41988566517829895,
        0.9018966555595398,
        -0.10138225555419922,
        0,
        -0.017694251611828804,
        0.11982018500566483,
        0.9926379323005676,
        0,
        -1.1175870895385742e-8,
        0.9492265582084656,
        -1.4901161193847656e-8,
        1
      ]
    },
    {
      "name": "upper_front_leg.L",
      "children": [
        11
      ],
      "matrix": [
        0.11212494224309921,
        0.9865727424621582,
        0.11875224113464355,
        0,
        0.9824548363685608,
        -0.09213937819004059,
        -0.16214875876903534,
        0,
        -0.14902985095977783,
        0.1348496824502945,
        -0.9795946478843689,
        0,
        0.6641190648078918,
        1.1709083318710327,
        -0.3085825443267822,
        1
      ]
    },
    {
      "name": "mid_body2",
      "children": [
        6,
        9,
        12
      ],
      "matrix": [
        0.9956876039505005,
        -0.09277068823575974,
        -0.000001253058712791244,
        0,
        0.09277068823575974,
        0.9956876039505005,
        1.2446388808484699e-8,
        0,
        0.000001246500119123084,
        -1.286397974809006e-7,
        1,
        0,
        8.61472493340898e-9,
        1.002755880355835,
        9.2148511043888e-15,
        1
      ]
    },
    {
      "name": "mid_body1",
      "children": [
        13
      ],
      "matrix": [
        0.9933645129203796,
        -0.11500844359397888,
        -4.706414813426818e-7,
        0,
        0.11500843614339828,
        0.9933644533157349,
        6.771494298618563e-8,
        0,
        4.597307565745723e-7,
        -1.2139337002281536e-7,
        1,
        0,
        -8.940696716308594e-8,
        1.007265329360962,
        6.661338147750939e-15,
        1
      ]
    },
    {
      "name": "foot.R",
      "matrix": [
        0.9022552967071533,
        -0.08184535801410675,
        -0.4233635663986206,
        0,
        0.23227879405021667,
        0.9194475412368774,
        0.3172740638256073,
        0,
        0.3632931709289551,
        -0.38460057973861694,
        0.8485873341560364,
        0,
        2.9802322387695312e-8,
        0.28074607253074646,
        0,
        1
      ]
    },
    {
      "name": "ankle.R",
      "children": [
        15
      ],
      "matrix": [
        -0.1498909592628479,
        -0.48768550157546997,
        -0.860055685043335,
        0,
        0.9247897863388062,
        0.23852646350860596,
        -0.29642677307128906,
        0,
        0.34970906376838684,
        -0.8398023843765259,
        0.41525357961654663,
        0,
        1.4901161193847656e-8,
        0.6633108854293823,
        -4.470348358154297e-8,
        1
      ]
    },
    {
      "name": "back_lower_leg.R",
      "children": [
        16
      ],
      "matrix": [
        0.7663412690162659,
        0.40855488181114197,
        0.495786190032959,
        0,
        -0.4769379198551178,
        0.8788407444953918,
        0.012994622811675072,
        0,
        -0.4304081201553345,
        -0.2464175820350647,
        0.8683473467826843,
        0,
        -1.1920928955078125e-7,
        0.8185129165649414,
        -4.0978193283081055e-8,
        1
      ]
    },
    {
      "name": "back_upper_leg.R",
      "children": [
        17
      ],
      "matrix": [
        -0.03738300874829292,
        0.9794684648513794,
        0.19810114800930023,
        0,
        0.9919315576553345,
        0.012339473702013493,
        0.12617434561252594,
        0,
        0.121139295399189,
        0.20121951401233673,
        -0.9720267057418823,
        0,
        0.592587411403656,
        0.5757659673690796,
        0.4235316514968872,
        1
      ]
    },
    {
      "name": "foot.L",
      "matrix": [
        0.5593588948249817,
        -0.10408340394496918,
        -0.8223649263381958,
        0,
        0.3693620264530182,
        0.9194474816322327,
        0.13486313819885254,
        0,
        0.7420843839645386,
        -0.37918731570243835,
        0.5527456402778625,
        0,
        -1.341104507446289e-7,
        0.28074613213539124,
        -2.9802322387695312e-8,
        1
      ]
    },
    {
      "name": "ankle.L",
      "children": [
        19
      ],
      "matrix": [
        0.306136816740036,
        -0.9423113465309143,
        -0.1353868991136551,
        0,
        0.8978614807128906,
        0.2385263890028,
        0.3700677752494812,
        0,
        -0.3164256811141968,
        -0.23485012352466583,
        0.9190866351127625,
        0,
        0,
        0.6633108854293823,
        7.450580596923828e-9,
        1
      ]
    },
    {
      "name": "back_lower_leg.L",
      "children": [
        20
      ],
      "matrix": [
        0.7599418759346008,
        0.3873436152935028,
        -0.5219705700874329,
        0,
        -0.475433886051178,
        0.8788408041000366,
        -0.040019020438194275,
        0,
        0.4432279169559479,
        0.2785746157169342,
        0.8520241975784302,
        0,
        -1.4901161193847656e-8,
        0.8185130953788757,
        1.1175870895385742e-8,
        1
      ]
    },
    {
      "name": "back_upper_leg.L",
      "children": [
        21
      ],
      "matrix": [
        -0.030453799292445183,
        0.9893028140068054,
        -0.1426626741886139,
        0,
        0.9919313788414001,
        0.012339510023593903,
        -0.126174658536911,
        0,
        -0.12306453287601471,
        -0.14535406231880188,
        -0.9816963076591492,
        0,
        0.5925872921943665,
        0.5757668614387512,
        -0.42353200912475586,
        1
      ]
    },
    {
      "name": "hips",
      "children": [
        14,
        18,
        22
      ],
      "matrix": [
        5.159057181458593e-8,
        -0.9822658896446228,
        0.18749327957630157,
        0,
        4.0976584614327294e-7,
        0.1874932050704956,
        0.9822657704353333,
        0,
        -0.9999963641166687,
        -2.00510008596666e-8,
        3.7395193430711515e-7,
        0,
        -1.21157270882577e-8,
        0.7492425441741943,
        -2.025824785232544,
        1
      ]
    },
    {
      "name": "tail4",
      "matrix": [
        1,
        -5.106150758834617e-14,
        -6.92209212729452e-22,
        0,
        5.106150758834617e-14,
        1,
        -6.064205138045509e-9,
        0,
        1.0018566817791486e-21,
        6.064205138045509e-9,
        1,
        0,
        3.7481129311345285e-13,
        0.7210493087768555,
        1.5631940186722204e-13,
        1
      ]
    },
    {
      "name": "tail3",
      "children": [
        24
      ],
      "matrix": [
        1,
        5.121522712761388e-14,
        -6.912757062886497e-22,
        0,
        -5.121522712761388e-14,
        1,
        6.082458980927186e-9,
        0,
        1.002790188219951e-21,
        -6.082458980927186e-9,
        1,
        0,
        1.8540724511240114e-13,
        0.6669707298278809,
        1.4210854715202004e-14,
        1
      ]
    },
    {
      "name": "tail2",
      "children": [
        25
      ],
      "matrix": [
        1,
        1.7046263489292612e-12,
        -1.1920928955078125e-7,
        0,
        -1.6804928759314719e-12,
        1,
        2.024461167593472e-7,
        0,
        1.1920928955078125e-7,
        -2.024461167593472e-7,
        1,
        0,
        -4.914069151595868e-12,
        0.6669707298278809,
        4.263256414560601e-14,
        1
      ]
    },
    {
      "name": "tail1",
      "children": [
        26
      ],
      "matrix": [
        0.000008344632988155354,
        1,
        9.947598300641403e-13,
        0,
        2.384185791015625e-7,
        -1.8417267710901797e-11,
        -1,
        0,
        -1,
        0.000008344650268554688,
        -2.3843600160944334e-7,
        0,
        -3.1486138141190168e-9,
        0.7736023664474487,
        -2.365943431854248,
        1
      ]
    },
    {
      "name": "Armature",
      "children": [
        0,
        23,
        27
      ]
    }
  ],
  "meshes": [
    {
      "primitives": [
        {
          "material": 0,
          "mode": 4,
          "attributes": {
            "POSITION": 0,
            "NORMAL": 1,
            "TEXCOORD_0": 2,
            "JOINTS_0": 3,
            "WEIGHTS_0": 4
          },
          "indices": 5
        }
      ]
    }
  ],
  "materials": [
    {
      "name": "Material.001",
      "pbrMetallicRoughness": {
        "baseColorFactor": [
          1,
          1,
          1,
          1
        ],
        "metallicFactor": 0,
        "roughnessFactor": 0.968181848526001,
        "baseColorTexture": {
          "index": 0,
          "texCoord": 0
        }
      },
      "emissiveFactor": [
        0,
        0,
        0
      ],
      "alphaMode": "OPAQUE",
      "doubleSided": true,
      "extensions": {
        "KHR_materials_specular": {
          "specularFactor": 1,
          "specularColorFactor": [
            0.054901960784313725,
            0.054901960784313725,
            0.054901960784313725
          ]
        },
        "KHR_materials_ior": {
          "ior": 1.4500000476837158
        }
      }
    }
  ],
  "textures": [
    {
      "sampler": 0,
      "name": "base",
      "source": 0
    }
  ],
  "samplers": [
    {
      "magFilter": 9729,
      "minFilter": 9987,
      "wrapS": 10497,
      "wrapT": 10497
    }
  ],
  "images": [
    {
      "uri": "data:image/jpeg;base64,",
      "mimeType": "image/jpeg"
    }
  ],
  "extensionsUsed": [
    "KHR_materials_specular",
    "KHR_materials_ior",
    "KHR_mesh_quantization"
  ],
  "extensionsRequired": [
    "KHR_mesh_quantization"
  ]
}