{
  "asset": {
    "version": "2.0",
    "generator": "THREE.GLTFExporter"
  },
  "buffers": [
    {
      "uri": "data:application/octet-stream;base64,",
      "byteLength": 3836
    },
    {
      "uri": "data:application/octet-stream;base64,",
      "byteLength": 552
    }
  ],
  "bufferViews": [
    {
      "buffer": 0,
      "byteOffset": 0,
      "byteLength": 944,
      "byteStride": 8,
      "target": 34962
    },
    {
      "buffer": 0,
      "byteOffset": 944,
      "byteLength": 1416,
      "byteStride": 12,
      "target": 34962
    },
    {
      "buffer": 0,
      "byteOffset": 2360,
      "byteLength": 1416,
      "byteStride": 12,
      "target": 34962
    },
    {
      "buffer": 0,
      "byteOffset": 3776,
      "byteLength": 60,
      "target": 34963
    },
    {
      "buffer": 1,
      "byteOffset": 0,
      "byteLength": 480,
      "byteStride": 20,
      "target": 34962
    },
    {
      "buffer": 1,
      "byteOffset": 480,
      "byteLength": 72,
      "target": 34963
    }
  ],
  "accessors": [
    {
      "bufferView": 0,
      "byteOffset": 0,
      "componentType": 5126,
      "normalized": false,
      "count": 118,
      "min": [
        -0.19542700052261353,
        -0.07386880367994308
      ],
      "max": [
        0.18986700475215912,
        0.2705009877681732
      ],
      "type": "VEC2"
    },
    {
      "bufferView": 1,
      "byteOffset": 0,
      "componentType": 5126,
      "normalized": false,
      "count": 118,
      "min": [
        -0.9607229828834534,
        -0.9999079704284668,
        -0.9933469891548157
      ],
      "max": [
        0.9968259930610657,
        0.6102480292320251,
        0.9822989702224731
      ],
      "type": "VEC3"
    },
    {
      "bufferView": 2,
      "byteOffset": 0,
      "componentType": 5126,
      "normalized": false,
      "count": 118,
      "min": [
        -0.4350000023841858,
        -0.018953800201416016,
        -0.4350000023841858
      ],
      "max": [
        0.4350000023841858,
        1.4535200595855713,
        0.4350000023841858
      ],
      "type": "VEC3"
    },
    {
      "bufferView": 3,
      "byteOffset": 0,
      "componentType": 5123,
      "normalized": false,
      "count": 30,
      "min": [
        88
      ],
      "max": [
        117
      ],
      "type": "SCALAR"
    },
    {
      "bufferView": 4,
      "byteOffset": 0,
      "componentType": 5126,
      "count": 24,
      "min": [
        -1,
        -1,
        -1
      ],
      "max": [
        1,
        1,
        1
      ],
      "type": "VEC3"
    },
    {
      "bufferView": 4,
      "byteOffset": 12,
      "componentType": 5126,
      "count": 24,
      "min": [
        0,
        0
      ],
      "max": [
        1,
        1
      ],
      "type": "VEC2"
    },
    {
      "bufferView": 5,
      "byteOffset": 0,
      "componentType": 5123,
      "normalized": false,
      "count": 36,
      "min": [
        0
      ],
      "max": [
        23
      ],
      "type": "SCALAR"
    }
  ],
  "scene": 0,
  "scenes": [
    {
      "nodes": [
        0,
        1,
        2,
        3,
        4,
        5,
        6,
        7,
        8,
        9,
        10,
        11,
        12
      ]
    }
  ],
  "nodes": [
    {
      "name": "mesh1926919455",
      "matrix": [
        4,
        3.496909926070657e-7,
        1.2031356549867993e-20,
        0,
        3.496909926070657e-7,
        -4,
        -6.516830239888804e-7,
        0,
        -5.69719103707747e-14,
        6.516830239888804e-7,
        -4,
        0,
        0,
        0,
        0,
        1
      ],
      "mesh": 0
    },
    {
      "name": "Cube"
    },
    {
      "name": "mesh1926919455",
      "matrix": [
        4,
        3.496909926070657e-7,
        1.2031356549867993e-20,
        0,
        3.496909926070657e-7,
        -4,
        -6.516830239888804e-7,
        0,
        -6.527848465769093e-14,
        7.466992428817321e-7,
        -4.583205223083496,
        0,
        -2.0880000591278076,
        -0.07158307731151581,
        -2.0880000591278076,
        1
      ]
    },
    {
      "name": "mesh1926919455",
      "matrix": [
        4,
        3.496909926070657e-7,
        1.2031356549867993e-20,
        0,
        3.496909926070657e-7,
        -4,
        -6.516830239888804e-7,
        0,
        -5.69719103707747e-14,
        6.516830239888804e-7,
        -4,
        0,
        0,
        0.000001002050339593552,
        -3.5,
        1
      ]
    },
    {
      "name": "mesh1926919455",
      "matrix": [
        4,
        3.496909926070657e-7,
        1.2031356549867993e-20,
        0,
        3.496909926070657e-7,
        -4,
        -6.516830239888804e-7,
        0,
        -5.69719103707747e-14,
        6.516830239888804e-7,
        -4,
        0,
        0,
        0,
        -7,
        1
      ]
    },
    {
      "name": "mesh1926919455",
      "matrix": [
        4,
        3.496909926070657e-7,
        1.2031356549867993e-20,
        0,
        3.496909926070657e-7,
        -4,
        -6.516830239888804e-7,
        0,
        -5.69719103707747e-14,
        6.516830239888804e-7,
        -4,
        0,
        0,
        0,
        3.5,
        1
      ]
    },
    {
      "name": "mesh1926919455",
      "matrix": [
        4,
        3.496909926070657e-7,
        1.2031356549867993e-20,
        0,
        3.496909926070657e-7,
        -4,
        4.898587410340671e-16,
        0,
        1.2074180918026085e-20,
        -4.898587410340671e-16,
        -4,
        0,
        0,
        0,
        -3.5,
        1
      ]
    },
    {
      "name": "Cube",
      "matrix": [
        2,
        0,
        0,
        0,
        0,
        2,
        0,
        0,
        0,
        0,
        2,
        0,
        0,
        0,
        0,
        1
      ]
    },
    {
      "name": "mesh1926919455",
      "matrix": [
        4,
        3.496909926070657e-7,
        1.2031356549867993e-20,
        0,
        3.496909926070657e-7,
        -4,
        -6.516830239888804e-7,
        0,
        -5.69719103707747e-14,
        6.516830239888804e-7,
        -4,
        0,
        0,
        0,
        -3.5,
        1
      ]
    },
    {
      "name": "Cube",
      "matrix": [
        1.7400000095367432,
        0,
        0,
        0,
        0,
        0.05999999865889549,
        0,
        0,
        0,
        0,
        1.7400000095367432,
        0,
        0,
        0,
        6.960000038146973,
        1
      ],
      "mesh": 1
    },
    {
      "name": "Cube",
      "matrix": [
        1.7400000095367432,
        0,
        0,
        0,
        0,
        0.05999999865889549,
        0,
        0,
        0,
        0,
        1.7400000095367432,
        0,
        0,
        0,
        -6.960000038146973,
        1
      ],
      "mesh": 2
    },
    {
      "name": "mesh1926919455",
      "matrix": [
        4,
        3.496909926070657e-7,
        1.2031356549867993e-20,
        0,
        3.496909926070657e-7,
        -4,
        -6.516830239888804e-7,
        0,
        -5.69719103707747e-14,
        6.516830239888804e-7,
        -4,
        0,
        0,
        0,
        -3.4800000190734863,
        1
      ],
      "mesh": 3
    },
    {
      "name": "mesh1926919455",
      "matrix": [
        4,
        3.496909926070657e-7,
        1.2031356549867993e-20,
        0,
        3.496909926070657e-7,
        -4,
        -6.516830239888804e-7,
        0,
        -5.69719103707747e-14,
        6.516830239888804e-7,
        -4,
        0,
        0,
        0,
        3.4800000190734863,
        1
      ],
      "mesh": 4
    }
  ],
  "meshes": [
    {
      "primitives": [
        {
          "material": 0,
          "mode": 4,
          "attributes": {
            "TEXCOORD_0": 0,
            "NORMAL": 1,
            "POSITION": 2
          },
          "indices": 3
        }
      ]
    },
    {
      "primitives": [
        {
          "material": 1,
          "mode": 4,
          "attributes": {
            "POSITION": 4,
            "TEXCOORD_0": 5
          },
          "indices": 6
        }
      ]
    },
    {
      "primitives": [
        {
          "material": 2,
          "mode": 4,
          "attributes": {
            "POSITION": 4,
            "TEXCOORD_0": 5
          },
          "indices": 6
        }
      ]
    },
    {
      "primitives": [
        {
          "material": 3,
          "mode": 4,
          "attributes": {
            "TEXCOORD_0": 0,
            "NORMAL": 1,
            "POSITION": 2
          },
          "indices": 3
        }
      ]
    },
    {
      "primitives": [
        {
          "material": 4,
          "mode": 4,
          "attributes": {
            "TEXCOORD_0": 0,
            "NORMAL": 1,
            "POSITION": 2
          },
          "indices": 3
        }
      ]
    }
  ],
  "materials": [
    {
      "name": "mat9",
      "pbrMetallicRoughness": {
        "baseColorFactor": [
          0.5215686274509804,
          0.5803921568627451,
          0.4549019607843137,
          1
        ],
        "metallicFactor": 0.5,
        "roughnessFactor": 0.8
      },
      "emissiveFactor": [
        0,
        0,
        0
      ],
      "alphaMode": "OPAQUE",
      "doubleSided": false
    },
    {
      "name": "",
      "pbrMetallicRoughness": {
        "baseColorFactor": [
          0.5490196078431373,
          0.7568627450980392,
          0.28627450980392155,
          1
        ],
        "metallicFactor": 0.5,
        "roughnessFactor": 0.5
      },
      "emissiveFactor": [
        0,
        0,
        0
      ],
      "alphaMode": "OPAQUE",
      "doubleSided": false,
      "extensions": {
        "KHR_materials_volume": {
          "thicknessFactor": 1,
          "attenuationColor": [
            1,
            1,
            1
          ],
          "attenuationDistance": null
        }
      }
    },
    {
      "name": "",
      "pbrMetallicRoughness": {
        "baseColorFactor": [
          0.5490196078431373,
          0.7568627450980392,
          0.28627450980392155,
          1
        ],
        "metallicFactor": 0.5,
        "roughnessFactor": 0.5
      },
      "emissiveFactor": [
        0,
        0,
        0
      ],
      "alphaMode": "OPAQUE",
      "doubleSided": false,
      "extensions": {
        "KHR_materials_volume": {
          "thicknessFactor": 1,
          "attenuationColor": [
            1,
            1,
            1
          ],
          "attenuationDistance": null
        }
      }
    },
    {
      "name": "mat9",
      "pbrMetallicRoughness": {
        "baseColorFactor": [
          0.5215686274509804,
          0.5803921568627451,
          0.4549019607843137,
          1
        ],
        "metallicFactor": 0.5,
        "roughnessFactor": 0.8
      },
      "emissiveFactor": [
        0,
        0,
        0
      ],
      "alphaMode": "OPAQUE",
      "doubleSided": false
    },
    {
      "name": "mat9",
      "pbrMetallicRoughness": {
        "baseColorFactor": [
          0.5215686274509804,
          0.5803921568627451,
          0.4549019607843137,
          1
        ],
        "metallicFactor": 0.5,
        "roughnessFactor": 0.8
      },
      "emissiveFactor": [
        0,
        0,
        0
      ],
      "alphaMode": "OPAQUE",
      "doubleSided": false
    }
  ],
  "extensionsUsed": [
    "KHR_materials_volume"
  ]
}